# xmcd
#
# Track frame offsets:
#	150
#	11563
#	22564
#	35826
#	48838
#	63675
#	77912
#	91941
#	104003
#	127399
#	140234
#	153753
#
# Disc length: 2229 seconds
#
# Revision: 1
# Processed by: cddbd v1.5.1PL2 Copyright (c) Steve Scherf et al.
# Submitted via: audiograbber 1.82.02
#
DISCID=a108b30c
DTITLE=The Boohers - Grandma's Songs
DYEAR=2005
DGENRE=Bluegrass
TTITLE0=Grandma's Songs
TTITLE1=Moon On The River
TTITLE2=Bluer Than Blue
TTITLE3=Sometimes The Good News Is Bad
TTITLE4=So It Goes
TTITLE5=In The Shadow Of Your Wings
TTITLE6=Bury Me Beneath The Willow
TTITLE7=Joe
TTITLE8=A Beautiful Home
TTITLE9=Linville Train
TTITLE10=Hobo's Lament
TTITLE11=Home With The One I Love
EXTD=
EXTT0=
EXTT1=
EXTT2=
EXTT3=
EXTT4=
EXTT5=
EXTT6=
EXTT7=
EXTT8=
EXTT9=
EXTT10=
EXTT11=
PLAYORDER=
